<mxfile host="app.diagrams.net" modified="2024-01-26T09:34:10.749Z" agent="Mozilla/5.0 (Windows NT 10.0; Win64; x64) AppleWebKit/537.36 (KHTML, like Gecko) Chrome/120.0.0.0 Safari/537.36" etag="hcE7Hp_6uQVXhVPtoFaz" version="22.1.18" type="device">
  <diagram name="Side-1" id="9wc2bCDF8jcbJQedmh1c">
    <mxGraphModel dx="1059" dy="621" grid="1" gridSize="10" guides="1" tooltips="1" connect="1" arrows="1" fold="1" page="1" pageScale="1" pageWidth="1169" pageHeight="827" background="#000000" math="0" shadow="0">
      <root>
        <mxCell id="0" />
        <mxCell id="1" parent="0" />
        <mxCell id="UKWAOsOXH3VqMl2zkUEt-37" style="edgeStyle=orthogonalEdgeStyle;rounded=0;orthogonalLoop=1;jettySize=auto;html=1;exitX=1;exitY=0.75;exitDx=0;exitDy=0;entryX=0;entryY=0.75;entryDx=0;entryDy=0;strokeWidth=2;strokeColor=#FFFFFF;" parent="1" source="RdfLjzGszYx29JksF3Ew-43" target="UKWAOsOXH3VqMl2zkUEt-33" edge="1">
          <mxGeometry relative="1" as="geometry" />
        </mxCell>
        <mxCell id="UKWAOsOXH3VqMl2zkUEt-36" style="edgeStyle=orthogonalEdgeStyle;rounded=0;orthogonalLoop=1;jettySize=auto;html=1;exitX=1;exitY=0.25;exitDx=0;exitDy=0;entryX=0;entryY=0.25;entryDx=0;entryDy=0;strokeWidth=2;strokeColor=#FFFFFF;" parent="1" source="RdfLjzGszYx29JksF3Ew-43" target="UKWAOsOXH3VqMl2zkUEt-33" edge="1">
          <mxGeometry relative="1" as="geometry" />
        </mxCell>
        <mxCell id="UKWAOsOXH3VqMl2zkUEt-12" value="&lt;font style=&quot;font-size: 24px;&quot;&gt;&lt;b&gt;Sensors&lt;/b&gt;&lt;/font&gt;" style="rounded=0;whiteSpace=wrap;html=1;" parent="1" vertex="1">
          <mxGeometry x="30" y="80" width="140" height="50" as="geometry" />
        </mxCell>
        <mxCell id="RdfLjzGszYx29JksF3Ew-34" value="" style="edgeStyle=orthogonalEdgeStyle;rounded=0;orthogonalLoop=1;jettySize=auto;html=1;jumpStyle=none;strokeWidth=3;exitX=1;exitY=0.5;exitDx=0;exitDy=0;strokeColor=#ffffff;" parent="1" source="UKWAOsOXH3VqMl2zkUEt-11" target="RdfLjzGszYx29JksF3Ew-33" edge="1">
          <mxGeometry relative="1" as="geometry">
            <mxPoint x="160" y="290" as="sourcePoint" />
          </mxGeometry>
        </mxCell>
        <mxCell id="RdfLjzGszYx29JksF3Ew-36" value="" style="edgeStyle=orthogonalEdgeStyle;rounded=0;orthogonalLoop=1;jettySize=auto;html=1;strokeWidth=3;strokeColor=#ffffff;" parent="1" source="RdfLjzGszYx29JksF3Ew-33" target="RdfLjzGszYx29JksF3Ew-35" edge="1">
          <mxGeometry relative="1" as="geometry" />
        </mxCell>
        <mxCell id="RdfLjzGszYx29JksF3Ew-33" value="&lt;font style=&quot;font-size: 24px;&quot;&gt;read_bin&lt;/font&gt;" style="rounded=1;whiteSpace=wrap;html=1;fontStyle=1;startSize=40;strokeWidth=3;" parent="1" vertex="1">
          <mxGeometry x="290" y="90" width="120" height="60" as="geometry" />
        </mxCell>
        <mxCell id="RdfLjzGszYx29JksF3Ew-38" value="" style="edgeStyle=orthogonalEdgeStyle;rounded=0;orthogonalLoop=1;jettySize=auto;html=1;strokeWidth=3;strokeColor=#ffffff;" parent="1" source="RdfLjzGszYx29JksF3Ew-35" target="RdfLjzGszYx29JksF3Ew-37" edge="1">
          <mxGeometry relative="1" as="geometry" />
        </mxCell>
        <mxCell id="RdfLjzGszYx29JksF3Ew-35" value="&lt;font style=&quot;font-size: 24px;&quot;&gt;Flip&lt;/font&gt;" style="whiteSpace=wrap;html=1;rounded=1;fontStyle=1;startSize=40;strokeWidth=3;" parent="1" vertex="1">
          <mxGeometry x="290" y="180" width="120" height="60" as="geometry" />
        </mxCell>
        <mxCell id="RdfLjzGszYx29JksF3Ew-40" value="&lt;font style=&quot;font-size: 16px;&quot;&gt;Thigh&lt;/font&gt;" style="edgeStyle=orthogonalEdgeStyle;rounded=0;orthogonalLoop=1;jettySize=auto;html=1;strokeWidth=2;exitX=0.25;exitY=1;exitDx=0;exitDy=0;strokeColor=#ffffff;" parent="1" source="RdfLjzGszYx29JksF3Ew-37" target="RdfLjzGszYx29JksF3Ew-39" edge="1">
          <mxGeometry relative="1" as="geometry" />
        </mxCell>
        <mxCell id="RdfLjzGszYx29JksF3Ew-42" value="" style="edgeStyle=orthogonalEdgeStyle;rounded=0;orthogonalLoop=1;jettySize=auto;html=1;strokeWidth=3;entryX=0.5;entryY=0;entryDx=0;entryDy=0;exitX=0.5;exitY=1;exitDx=0;exitDy=0;exitPerimeter=0;strokeColor=#ffffff;" parent="1" source="RdfLjzGszYx29JksF3Ew-37" target="RdfLjzGszYx29JksF3Ew-41" edge="1">
          <mxGeometry relative="1" as="geometry">
            <mxPoint x="350" y="345" as="sourcePoint" />
            <mxPoint x="490" y="290" as="targetPoint" />
            <Array as="points">
              <mxPoint x="350" y="365" />
              <mxPoint x="498" y="365" />
            </Array>
          </mxGeometry>
        </mxCell>
        <mxCell id="RdfLjzGszYx29JksF3Ew-37" value="&lt;font style=&quot;font-size: 24px;&quot;&gt;AdjustRawBin&lt;/font&gt;" style="whiteSpace=wrap;html=1;rounded=1;fontStyle=1;startSize=40;strokeWidth=3;" parent="1" vertex="1">
          <mxGeometry x="255" y="280" width="190" height="60" as="geometry" />
        </mxCell>
        <mxCell id="UKWAOsOXH3VqMl2zkUEt-29" value="" style="edgeStyle=orthogonalEdgeStyle;rounded=0;orthogonalLoop=1;jettySize=auto;html=1;exitX=1;exitY=0.5;exitDx=0;exitDy=0;entryX=0;entryY=0.5;entryDx=0;entryDy=0;strokeWidth=2;strokeColor=#FFFFFF;" parent="1" source="RdfLjzGszYx29JksF3Ew-39" target="RdfLjzGszYx29JksF3Ew-41" edge="1">
          <mxGeometry relative="1" as="geometry" />
        </mxCell>
        <mxCell id="RdfLjzGszYx29JksF3Ew-39" value="&lt;font style=&quot;font-size: 24px;&quot;&gt;ref = find_ref&lt;/font&gt;" style="whiteSpace=wrap;html=1;rounded=1;fontStyle=1;startSize=40;strokeWidth=3;" parent="1" vertex="1">
          <mxGeometry x="180" y="414" width="190" height="60" as="geometry" />
        </mxCell>
        <mxCell id="RdfLjzGszYx29JksF3Ew-44" value="" style="edgeStyle=orthogonalEdgeStyle;rounded=0;orthogonalLoop=1;jettySize=auto;html=1;strokeWidth=3;strokeColor=#FFFFFF;" parent="1" source="RdfLjzGszYx29JksF3Ew-41" target="RdfLjzGszYx29JksF3Ew-43" edge="1">
          <mxGeometry relative="1" as="geometry" />
        </mxCell>
        <mxCell id="RdfLjzGszYx29JksF3Ew-41" value="&lt;font style=&quot;font-size: 24px;&quot;&gt;AutoCalibrate&lt;/font&gt;" style="whiteSpace=wrap;html=1;rounded=1;fontStyle=1;startSize=40;strokeWidth=3;" parent="1" vertex="1">
          <mxGeometry x="410" y="400" width="175" height="60" as="geometry" />
        </mxCell>
        <mxCell id="RdfLjzGszYx29JksF3Ew-68" value="&lt;font style=&quot;font-size: 16px;&quot;&gt;Other sensors&lt;br&gt;&lt;span style=&quot;font-weight: normal;&quot;&gt;3 x 30 Hz&lt;/span&gt;&lt;/font&gt;" style="edgeStyle=orthogonalEdgeStyle;rounded=0;orthogonalLoop=1;jettySize=auto;html=1;exitX=1;exitY=0.5;exitDx=0;exitDy=0;fontStyle=1;labelBorderColor=default;entryX=0;entryY=0.5;entryDx=0;entryDy=0;strokeWidth=2;strokeColor=#FFFFFF;" parent="1" source="RdfLjzGszYx29JksF3Ew-43" target="UKWAOsOXH3VqMl2zkUEt-33" edge="1">
          <mxGeometry x="0.0164" relative="1" as="geometry">
            <mxPoint x="740" y="515" as="targetPoint" />
            <mxPoint as="offset" />
          </mxGeometry>
        </mxCell>
        <mxCell id="RdfLjzGszYx29JksF3Ew-43" value="&lt;font style=&quot;font-size: 24px;&quot;&gt;Synchronize&lt;/font&gt;&lt;br&gt;(if more than one sensor)" style="whiteSpace=wrap;html=1;rounded=1;fontStyle=1;startSize=40;strokeWidth=3;" parent="1" vertex="1">
          <mxGeometry x="305" y="500" width="150" height="60" as="geometry" />
        </mxCell>
        <mxCell id="RdfLjzGszYx29JksF3Ew-45" value="&lt;font style=&quot;font-size: 24px;&quot;&gt;&lt;b&gt;Core algorithm&lt;/b&gt;&lt;/font&gt;" style="text;html=1;strokeColor=none;fillColor=none;align=center;verticalAlign=middle;whiteSpace=wrap;rounded=0;" parent="1" vertex="1">
          <mxGeometry x="670" y="30" width="390" height="30" as="geometry" />
        </mxCell>
        <mxCell id="RdfLjzGszYx29JksF3Ew-46" value="" style="endArrow=none;html=1;rounded=0;fillColor=#dae8fc;strokeColor=#6c8ebf;" parent="1" edge="1">
          <mxGeometry width="50" height="50" relative="1" as="geometry">
            <mxPoint x="20" y="640" as="sourcePoint" />
            <mxPoint x="20" y="10" as="targetPoint" />
          </mxGeometry>
        </mxCell>
        <mxCell id="RdfLjzGszYx29JksF3Ew-47" value="" style="endArrow=none;html=1;rounded=0;fillColor=#dae8fc;strokeColor=#6c8ebf;" parent="1" edge="1">
          <mxGeometry width="50" height="50" relative="1" as="geometry">
            <mxPoint x="180" y="645" as="sourcePoint" />
            <mxPoint x="180" y="15" as="targetPoint" />
          </mxGeometry>
        </mxCell>
        <mxCell id="RdfLjzGszYx29JksF3Ew-48" value="&lt;font color=&quot;#ffffff&quot; style=&quot;font-size: 24px;&quot;&gt;&lt;b&gt;Data collection&lt;/b&gt;&lt;/font&gt;" style="text;html=1;strokeColor=none;fillColor=none;align=center;verticalAlign=middle;whiteSpace=wrap;rounded=0;" parent="1" vertex="1">
          <mxGeometry x="20" y="30" width="160" height="30" as="geometry" />
        </mxCell>
        <mxCell id="RdfLjzGszYx29JksF3Ew-50" value="" style="endArrow=none;html=1;rounded=0;fillColor=#dae8fc;strokeColor=#6c8ebf;" parent="1" edge="1">
          <mxGeometry width="50" height="50" relative="1" as="geometry">
            <mxPoint x="585" y="650" as="sourcePoint" />
            <mxPoint x="585" y="20" as="targetPoint" />
          </mxGeometry>
        </mxCell>
        <mxCell id="RdfLjzGszYx29JksF3Ew-51" value="&lt;font style=&quot;font-size: 24px;&quot;&gt;ActivityDetect&lt;/font&gt;" style="swimlane;whiteSpace=wrap;html=1;rounded=1;startSize=40;strokeColor=#ffffff;" parent="1" vertex="1">
          <mxGeometry x="680" y="90" width="340" height="290" as="geometry" />
        </mxCell>
        <mxCell id="RdfLjzGszYx29JksF3Ew-53" value="&lt;font style=&quot;font-size: 18px;&quot;&gt;Rotate&lt;/font&gt;" style="rounded=0;whiteSpace=wrap;html=1;" parent="RdfLjzGszYx29JksF3Ew-51" vertex="1">
          <mxGeometry x="10" y="60" width="70" height="30" as="geometry" />
        </mxCell>
        <mxCell id="RdfLjzGszYx29JksF3Ew-54" value="&lt;font style=&quot;font-size: 18px;&quot;&gt;Downsample&lt;/font&gt;" style="rounded=0;whiteSpace=wrap;html=1;" parent="RdfLjzGszYx29JksF3Ew-51" vertex="1">
          <mxGeometry x="10" y="120" width="120" height="30" as="geometry" />
        </mxCell>
        <mxCell id="RdfLjzGszYx29JksF3Ew-55" value="" style="edgeStyle=orthogonalEdgeStyle;rounded=0;orthogonalLoop=1;jettySize=auto;html=1;strokeWidth=2;strokeColor=#ffffff;" parent="RdfLjzGszYx29JksF3Ew-51" source="RdfLjzGszYx29JksF3Ew-53" target="RdfLjzGszYx29JksF3Ew-54" edge="1">
          <mxGeometry relative="1" as="geometry" />
        </mxCell>
        <mxCell id="RdfLjzGszYx29JksF3Ew-61" value="&lt;font style=&quot;font-size: 18px;&quot;&gt;Classification&lt;/font&gt;" style="rounded=0;whiteSpace=wrap;html=1;" parent="RdfLjzGszYx29JksF3Ew-51" vertex="1">
          <mxGeometry x="200" y="90" width="120" height="30" as="geometry" />
        </mxCell>
        <mxCell id="UKWAOsOXH3VqMl2zkUEt-6" value="&lt;font style=&quot;font-size: 16px;&quot;&gt;1 axis, 1 Hz&lt;/font&gt;" style="edgeStyle=orthogonalEdgeStyle;rounded=0;orthogonalLoop=1;jettySize=auto;html=1;exitX=1;exitY=0.5;exitDx=0;exitDy=0;strokeWidth=2;strokeColor=#FCFCFC;" parent="RdfLjzGszYx29JksF3Ew-51" source="RdfLjzGszYx29JksF3Ew-64" edge="1">
          <mxGeometry x="-0.0036" relative="1" as="geometry">
            <mxPoint x="470" y="155" as="targetPoint" />
            <mxPoint as="offset" />
          </mxGeometry>
        </mxCell>
        <mxCell id="UKWAOsOXH3VqMl2zkUEt-30" value="" style="edgeStyle=orthogonalEdgeStyle;rounded=0;orthogonalLoop=1;jettySize=auto;html=1;strokeWidth=2;strokeColor=#ffffff;" parent="RdfLjzGszYx29JksF3Ew-51" source="RdfLjzGszYx29JksF3Ew-64" target="RdfLjzGszYx29JksF3Ew-54" edge="1">
          <mxGeometry relative="1" as="geometry" />
        </mxCell>
        <mxCell id="RdfLjzGszYx29JksF3Ew-64" value="&lt;span style=&quot;font-size: 18px;&quot;&gt;AktFilt&lt;/span&gt;" style="rounded=0;whiteSpace=wrap;html=1;" parent="RdfLjzGszYx29JksF3Ew-51" vertex="1">
          <mxGeometry x="200" y="140" width="120" height="30" as="geometry" />
        </mxCell>
        <mxCell id="RdfLjzGszYx29JksF3Ew-65" value="" style="edgeStyle=orthogonalEdgeStyle;rounded=0;orthogonalLoop=1;jettySize=auto;html=1;exitX=0.5;exitY=1;exitDx=0;exitDy=0;strokeColor=#ffffff;" parent="RdfLjzGszYx29JksF3Ew-51" source="RdfLjzGszYx29JksF3Ew-61" target="RdfLjzGszYx29JksF3Ew-64" edge="1">
          <mxGeometry relative="1" as="geometry" />
        </mxCell>
        <mxCell id="RdfLjzGszYx29JksF3Ew-66" value="&lt;font style=&quot;font-size: 18px;&quot;&gt;TrinAnalyse&lt;/font&gt;" style="whiteSpace=wrap;html=1;rounded=0;" parent="RdfLjzGszYx29JksF3Ew-51" vertex="1">
          <mxGeometry x="10" y="210" width="120" height="30" as="geometry" />
        </mxCell>
        <mxCell id="RdfLjzGszYx29JksF3Ew-67" value="&lt;font style=&quot;font-size: 16px;&quot;&gt;1 axis, 1 Hz&lt;/font&gt;" style="edgeStyle=orthogonalEdgeStyle;rounded=0;orthogonalLoop=1;jettySize=auto;html=1;strokeWidth=2;strokeColor=#ffffff;" parent="RdfLjzGszYx29JksF3Ew-51" source="RdfLjzGszYx29JksF3Ew-64" target="RdfLjzGszYx29JksF3Ew-66" edge="1">
          <mxGeometry x="0.0526" relative="1" as="geometry">
            <Array as="points">
              <mxPoint x="260" y="190" />
              <mxPoint x="70" y="190" />
            </Array>
            <mxPoint as="offset" />
          </mxGeometry>
        </mxCell>
        <mxCell id="UKWAOsOXH3VqMl2zkUEt-5" style="edgeStyle=orthogonalEdgeStyle;rounded=0;orthogonalLoop=1;jettySize=auto;html=1;exitX=1;exitY=0.5;exitDx=0;exitDy=0;entryX=0;entryY=0.25;entryDx=0;entryDy=0;strokeWidth=2;strokeColor=#FCFCFC;" parent="RdfLjzGszYx29JksF3Ew-51" source="RdfLjzGszYx29JksF3Ew-66" target="UKWAOsOXH3VqMl2zkUEt-7" edge="1">
          <mxGeometry relative="1" as="geometry">
            <mxPoint x="230" y="205" as="targetPoint" />
          </mxGeometry>
        </mxCell>
        <mxCell id="UKWAOsOXH3VqMl2zkUEt-9" style="edgeStyle=orthogonalEdgeStyle;rounded=0;orthogonalLoop=1;jettySize=auto;html=1;exitX=0.75;exitY=0;exitDx=0;exitDy=0;entryX=0.75;entryY=1;entryDx=0;entryDy=0;strokeWidth=2;strokeColor=#FCFCFC;" parent="RdfLjzGszYx29JksF3Ew-51" source="UKWAOsOXH3VqMl2zkUEt-7" target="RdfLjzGszYx29JksF3Ew-64" edge="1">
          <mxGeometry relative="1" as="geometry" />
        </mxCell>
        <mxCell id="UKWAOsOXH3VqMl2zkUEt-7" value="&lt;font style=&quot;font-size: 18px;&quot;&gt;Adjust run/walk&lt;/font&gt;" style="whiteSpace=wrap;html=1;rounded=0;" parent="RdfLjzGszYx29JksF3Ew-51" vertex="1">
          <mxGeometry x="220" y="240" width="110" height="40" as="geometry" />
        </mxCell>
        <mxCell id="UKWAOsOXH3VqMl2zkUEt-32" value="" style="edgeStyle=orthogonalEdgeStyle;rounded=0;orthogonalLoop=1;jettySize=auto;html=1;entryX=0.5;entryY=0;entryDx=0;entryDy=0;strokeWidth=2;strokeColor=#ffffff;" parent="RdfLjzGszYx29JksF3Ew-51" source="UKWAOsOXH3VqMl2zkUEt-31" target="RdfLjzGszYx29JksF3Ew-61" edge="1">
          <mxGeometry relative="1" as="geometry" />
        </mxCell>
        <mxCell id="UKWAOsOXH3VqMl2zkUEt-31" value="&lt;font style=&quot;font-size: 18px;&quot;&gt;Compute angles&lt;/font&gt;" style="rounded=0;whiteSpace=wrap;html=1;" parent="RdfLjzGszYx29JksF3Ew-51" vertex="1">
          <mxGeometry x="90" y="50" width="100" height="40" as="geometry" />
        </mxCell>
        <mxCell id="RdfLjzGszYx29JksF3Ew-62" value="" style="edgeStyle=orthogonalEdgeStyle;rounded=0;orthogonalLoop=1;jettySize=auto;html=1;exitX=0.75;exitY=0;exitDx=0;exitDy=0;strokeWidth=2;strokeColor=#ffffff;" parent="RdfLjzGszYx29JksF3Ew-51" source="RdfLjzGszYx29JksF3Ew-54" target="UKWAOsOXH3VqMl2zkUEt-31" edge="1">
          <mxGeometry relative="1" as="geometry">
            <mxPoint x="130" y="80" as="targetPoint" />
            <Array as="points">
              <mxPoint x="100" y="110" />
              <mxPoint x="140" y="110" />
            </Array>
          </mxGeometry>
        </mxCell>
        <mxCell id="RdfLjzGszYx29JksF3Ew-59" value="" style="group" parent="1" vertex="1" connectable="0">
          <mxGeometry x="525" y="190" width="95" height="415" as="geometry" />
        </mxCell>
        <mxCell id="RdfLjzGszYx29JksF3Ew-52" value="&lt;font style=&quot;font-size: 16px;&quot;&gt;&lt;b&gt;Thigh&lt;br&gt;&lt;/b&gt;3 axes, 30 Hz&lt;/font&gt;" style="edgeStyle=orthogonalEdgeStyle;rounded=0;orthogonalLoop=1;jettySize=auto;html=1;entryX=0;entryY=0.5;entryDx=0;entryDy=0;exitX=0.75;exitY=0;exitDx=0;exitDy=0;labelBorderColor=default;strokeWidth=2;strokeColor=#FFFFFF;" parent="1" source="RdfLjzGszYx29JksF3Ew-43" target="RdfLjzGszYx29JksF3Ew-53" edge="1">
          <mxGeometry x="0.1276" relative="1" as="geometry">
            <mxPoint x="510" y="510" as="sourcePoint" />
            <mxPoint x="640" y="150" as="targetPoint" />
            <Array as="points">
              <mxPoint x="630" y="500" />
              <mxPoint x="630" y="165" />
            </Array>
            <mxPoint y="1" as="offset" />
          </mxGeometry>
        </mxCell>
        <mxCell id="RdfLjzGszYx29JksF3Ew-69" value="&lt;font color=&quot;#ffffff&quot; style=&quot;font-size: 24px;&quot;&gt;&lt;b&gt;Preprocessing&lt;/b&gt;&lt;/font&gt;" style="text;html=1;strokeColor=none;fillColor=none;align=center;verticalAlign=middle;whiteSpace=wrap;rounded=0;" parent="1" vertex="1">
          <mxGeometry x="220" y="30" width="390" height="30" as="geometry" />
        </mxCell>
        <mxCell id="UKWAOsOXH3VqMl2zkUEt-3" value="" style="endArrow=classic;html=1;rounded=0;endFill=1;entryX=0.25;entryY=0;entryDx=0;entryDy=0;strokeWidth=2;strokeColor=#ffffff;" parent="1" target="RdfLjzGszYx29JksF3Ew-66" edge="1">
          <mxGeometry width="50" height="50" relative="1" as="geometry">
            <mxPoint x="630" y="260" as="sourcePoint" />
            <mxPoint x="760" y="260" as="targetPoint" />
            <Array as="points">
              <mxPoint x="720" y="260" />
            </Array>
          </mxGeometry>
        </mxCell>
        <mxCell id="UKWAOsOXH3VqMl2zkUEt-11" value="" style="rounded=0;whiteSpace=wrap;html=1;strokeWidth=3;fillColor=none;" parent="1" vertex="1">
          <mxGeometry x="30" y="80" width="140" height="560" as="geometry" />
        </mxCell>
        <mxCell id="UKWAOsOXH3VqMl2zkUEt-14" value="&lt;font style=&quot;font-size: 24px;&quot;&gt;Thigh&lt;/font&gt;" style="rounded=0;whiteSpace=wrap;html=1;" parent="1" vertex="1">
          <mxGeometry x="40" y="140" width="120" height="60" as="geometry" />
        </mxCell>
        <mxCell id="UKWAOsOXH3VqMl2zkUEt-15" value="&lt;font style=&quot;font-size: 24px;&quot;&gt;Arm&lt;/font&gt;" style="rounded=0;whiteSpace=wrap;html=1;" parent="1" vertex="1">
          <mxGeometry x="40" y="210" width="120" height="60" as="geometry" />
        </mxCell>
        <mxCell id="UKWAOsOXH3VqMl2zkUEt-16" value="&lt;font style=&quot;font-size: 24px;&quot;&gt;Trunk&lt;/font&gt;" style="rounded=0;whiteSpace=wrap;html=1;" parent="1" vertex="1">
          <mxGeometry x="40" y="280" width="120" height="60" as="geometry" />
        </mxCell>
        <mxCell id="UKWAOsOXH3VqMl2zkUEt-17" value="&lt;font style=&quot;font-size: 24px;&quot;&gt;Calf&lt;/font&gt;" style="rounded=0;whiteSpace=wrap;html=1;" parent="1" vertex="1">
          <mxGeometry x="40" y="350" width="120" height="60" as="geometry" />
        </mxCell>
        <mxCell id="UKWAOsOXH3VqMl2zkUEt-20" value="" style="ellipse;whiteSpace=wrap;html=1;aspect=fixed;fillColor=#000000;" parent="1" vertex="1">
          <mxGeometry x="95" y="480" width="10" height="10" as="geometry" />
        </mxCell>
        <mxCell id="UKWAOsOXH3VqMl2zkUEt-22" value="" style="ellipse;whiteSpace=wrap;html=1;aspect=fixed;fillColor=#000000;" parent="1" vertex="1">
          <mxGeometry x="95" y="420" width="10" height="10" as="geometry" />
        </mxCell>
        <mxCell id="UKWAOsOXH3VqMl2zkUEt-23" value="" style="ellipse;whiteSpace=wrap;html=1;aspect=fixed;fillColor=#000000;" parent="1" vertex="1">
          <mxGeometry x="95" y="480" width="10" height="10" as="geometry" />
        </mxCell>
        <mxCell id="UKWAOsOXH3VqMl2zkUEt-27" value="" style="ellipse;whiteSpace=wrap;html=1;aspect=fixed;fillColor=#000000;" parent="1" vertex="1">
          <mxGeometry x="95" y="450" width="10" height="10" as="geometry" />
        </mxCell>
        <mxCell id="UKWAOsOXH3VqMl2zkUEt-38" style="edgeStyle=orthogonalEdgeStyle;rounded=0;orthogonalLoop=1;jettySize=auto;html=1;exitX=1;exitY=0.25;exitDx=0;exitDy=0;strokeWidth=2;strokeColor=#ffffff;" parent="1" source="UKWAOsOXH3VqMl2zkUEt-33" edge="1">
          <mxGeometry relative="1" as="geometry">
            <mxPoint x="1150" y="515" as="targetPoint" />
          </mxGeometry>
        </mxCell>
        <mxCell id="UKWAOsOXH3VqMl2zkUEt-39" style="edgeStyle=orthogonalEdgeStyle;rounded=0;orthogonalLoop=1;jettySize=auto;html=1;exitX=1;exitY=0.5;exitDx=0;exitDy=0;strokeWidth=2;strokeColor=#ffffff;" parent="1" source="UKWAOsOXH3VqMl2zkUEt-33" edge="1">
          <mxGeometry relative="1" as="geometry">
            <mxPoint x="1150" y="530" as="targetPoint" />
          </mxGeometry>
        </mxCell>
        <mxCell id="UKWAOsOXH3VqMl2zkUEt-40" style="edgeStyle=orthogonalEdgeStyle;rounded=0;orthogonalLoop=1;jettySize=auto;html=1;exitX=1;exitY=0.75;exitDx=0;exitDy=0;strokeWidth=2;strokeColor=#ffffff;" parent="1" source="UKWAOsOXH3VqMl2zkUEt-33" edge="1">
          <mxGeometry relative="1" as="geometry">
            <mxPoint x="1150" y="545" as="targetPoint" />
          </mxGeometry>
        </mxCell>
        <mxCell id="UKWAOsOXH3VqMl2zkUEt-33" value="&lt;font style=&quot;font-size: 18px;&quot;&gt;Compute angles&lt;/font&gt;" style="rounded=0;whiteSpace=wrap;html=1;" parent="1" vertex="1">
          <mxGeometry x="760" y="500" width="100" height="60" as="geometry" />
        </mxCell>
      </root>
    </mxGraphModel>
  </diagram>
</mxfile>
